<?xml version="1.0" standalone="no"?>
<!DOCTYPE svg PUBLIC "-//W3C//DTD SVG 1.1//EN" "http://www.w3.org/Graphics/SVG/1.1/DTD/svg11.dtd">
<svg version="1.1" xmlns="http://www.w3.org/2000/svg" viewBox="0 0 1330 704.7406140036553" width="2660" height="1409.4812280073106"><!-- svg-source:excalidraw --><metadata></metadata><defs><style class="style-fonts">
      </style></defs><rect x="0" y="0" width="1330" height="704.7406140036553" fill="#ffffff"></rect><g transform="translate(10 62.99415047772365) rotate(0 193.4560546875 22.5)"><text x="0" y="31.716" font-family="Segoe UI Emoji" font-size="36px" fill="#1e1e1e" text-anchor="start" style="white-space: pre;" direction="ltr" dominant-baseline="alphabetic">MobilityCorp Architecture</text></g><g stroke-linecap="round" transform="translate(40 152.99415047772365) rotate(0 90 35)"><path d="M-1.4 -0.4 L178.89 -0.05 L179.74 71.1 L-1.62 68.46" stroke="none" stroke-width="0" fill="#b2f2bb"></path><path d="M0 0 C69.68 -3.28, 135.85 0.4, 180 0 M0 0 C42.65 -1.08, 85.37 -0.43, 180 0 M180 0 C179.29 16.91, 180.65 31.34, 180 70 M180 0 C180.55 16.07, 180.59 31.04, 180 70 M180 70 C140.26 67.07, 102.61 70.9, 0 70 M180 70 C122.9 70.43, 64.14 71.06, 0 70 M0 70 C0.06 48.46, 1.64 31.02, 0 0 M0 70 C0.17 48.31, -0.07 25.7, 0 0" stroke="#2f9e44" stroke-width="2" fill="none"></path></g><g transform="translate(73.60277956967764 165.568370810998) rotate(0 52.74755859375 22.5)"><text x="52.74755859375" y="15.858" font-family="Segoe UI Emoji" font-size="18px" fill="#1e1e1e" text-anchor="middle" style="white-space: pre;" direction="ltr" dominant-baseline="alphabetic">Customer App</text><text x="52.74755859375" y="38.358000000000004" font-family="Segoe UI Emoji" font-size="18px" fill="#1e1e1e" text-anchor="middle" style="white-space: pre;" direction="ltr" dominant-baseline="alphabetic">(Mobile)</text></g><g stroke-linecap="round" transform="translate(40 242.99415047772365) rotate(0 90 35)"><path d="M-0.26 1.1 L178.38 -1.54 L181.5 68.74 L-0.71 68.86" stroke="none" stroke-width="0" fill="#b2f2bb"></path><path d="M0 0 C35.18 -2.92, 74.49 -0.93, 180 0 M0 0 C58.47 -2.04, 119.15 -1.94, 180 0 M180 0 C178.74 25.48, 179.1 52.99, 180 70 M180 0 C179.66 24.18, 179.91 49.36, 180 70 M180 70 C143.22 70.34, 106.58 72.65, 0 70 M180 70 C132.88 70.84, 85.88 70.6, 0 70 M0 70 C-0.42 53.72, 0.05 39.41, 0 0 M0 70 C-0.34 47.35, -0.2 25.07, 0 0" stroke="#2f9e44" stroke-width="2" fill="none"></path></g><g transform="translate(73.60277956967764 255.568370810998) rotate(0 55.8369140625 22.5)"><text x="55.8369140625" y="15.858" font-family="Segoe UI Emoji" font-size="18px" fill="#1e1e1e" text-anchor="middle" style="white-space: pre;" direction="ltr" dominant-baseline="alphabetic">Field Staff App</text><text x="55.8369140625" y="38.358000000000004" font-family="Segoe UI Emoji" font-size="18px" fill="#1e1e1e" text-anchor="middle" style="white-space: pre;" direction="ltr" dominant-baseline="alphabetic">(Offline-first)</text></g><g stroke-linecap="round" transform="translate(40 332.9941504777237) rotate(0 90 35)"><path d="M1.5 -1.26 L179.29 -1.14 L181.48 68.9 L-0.56 71.02" stroke="none" stroke-width="0" fill="#b2f2bb"></path><path d="M0 0 C42.33 0.81, 85.38 -2.13, 180 0 M0 0 C48.6 0.87, 95.96 -0.36, 180 0 M180 0 C180.68 21.21, 179.61 37.9, 180 70 M180 0 C178.65 16.38, 180.57 32.45, 180 70 M180 70 C138.01 69.28, 98.07 70.47, 0 70 M180 70 C117.64 71.28, 57.33 70.45, 0 70 M0 70 C0.16 52.36, -1.28 35.36, 0 0 M0 70 C0.26 50.96, -0.42 30.06, 0 0" stroke="#2f9e44" stroke-width="2" fill="none"></path></g><g transform="translate(73.60277956967764 345.568370810998) rotate(0 58.73291015625 22.5)"><text x="58.73291015625" y="15.858" font-family="Segoe UI Emoji" font-size="18px" fill="#1e1e1e" text-anchor="middle" style="white-space: pre;" direction="ltr" dominant-baseline="alphabetic">On-Vehicle App</text><text x="58.73291015625" y="38.358000000000004" font-family="Segoe UI Emoji" font-size="18px" fill="#1e1e1e" text-anchor="middle" style="white-space: pre;" direction="ltr" dominant-baseline="alphabetic">(Kiosk)</text></g><g stroke-linecap="round" transform="translate(40 422.9941504777237) rotate(0 90 35)"><path d="M1.48 -1.1 L179.44 1.02 L178.22 68.44 L-1.37 68.34" stroke="none" stroke-width="0" fill="#b2f2bb"></path><path d="M0 0 C65.76 2.68, 132.4 2.79, 180 0 M0 0 C61.84 0.8, 124.69 1.97, 180 0 M180 0 C178.62 24.81, 179.22 50.1, 180 70 M180 0 C179.97 23.23, 181.13 45.16, 180 70 M180 70 C140.54 69.3, 99.76 67.99, 0 70 M180 70 C107.99 70.59, 36.95 70.44, 0 70 M0 70 C-0.04 51.48, 0.31 34.9, 0 0 M0 70 C1.32 44.53, 0.21 19.75, 0 0" stroke="#2f9e44" stroke-width="2" fill="none"></path></g><g transform="translate(73.60277956967764 435.568370810998) rotate(0 43.2333984375 22.5)"><text x="43.2333984375" y="15.858" font-family="Segoe UI Emoji" font-size="18px" fill="#1e1e1e" text-anchor="middle" style="white-space: pre;" direction="ltr" dominant-baseline="alphabetic">Back Office</text><text x="43.2333984375" y="38.358000000000004" font-family="Segoe UI Emoji" font-size="18px" fill="#1e1e1e" text-anchor="middle" style="white-space: pre;" direction="ltr" dominant-baseline="alphabetic">(Web)</text></g><g stroke-linecap="round" transform="translate(360 212.99415047772365) rotate(0 148.974609375 102.12158203125)"><path d="M-1.78 -1.56 L296.58 -1.66 L299.21 203.05 L0.6 204.01" stroke="none" stroke-width="0" fill="#a5d8ff"></path><path d="M0 0 C109.06 -1.3, 215.66 -1.77, 297.95 0 M0 0 C71.8 -1.2, 141.93 -1.73, 297.95 0 M297.95 0 C297.68 51.02, 297.58 97.27, 297.95 204.24 M297.95 0 C298.08 70.84, 298.61 141.63, 297.95 204.24 M297.95 204.24 C215.92 202.88, 131.23 201.45, 0 204.24 M297.95 204.24 C197.33 204.32, 96.96 204.55, 0 204.24 M0 204.24 C1.03 152.85, -1.32 105.69, 0 0 M0 204.24 C1.31 155.31, 0.4 107.81, 0 0" stroke="#1971c2" stroke-width="3" fill="none"></path></g><g transform="translate(416.03482811081744 238.49705668556246) rotate(0 96.9091796875 75)"><text x="96.9091796875" y="17.619999999999997" font-family="Segoe UI Emoji" font-size="20px" fill="#1e1e1e" text-anchor="middle" style="white-space: pre;" direction="ltr" dominant-baseline="alphabetic">Event-Driven Backbone</text><text x="96.9091796875" y="42.62" font-family="Segoe UI Emoji" font-size="20px" fill="#1e1e1e" text-anchor="middle" style="white-space: pre;" direction="ltr" dominant-baseline="alphabetic"></text><text x="96.9091796875" y="67.62" font-family="Segoe UI Emoji" font-size="20px" fill="#1e1e1e" text-anchor="middle" style="white-space: pre;" direction="ltr" dominant-baseline="alphabetic">Microservices</text><text x="96.9091796875" y="92.62" font-family="Segoe UI Emoji" font-size="20px" fill="#1e1e1e" text-anchor="middle" style="white-space: pre;" direction="ltr" dominant-baseline="alphabetic">Event Bus</text><text x="96.9091796875" y="117.62" font-family="Segoe UI Emoji" font-size="20px" fill="#1e1e1e" text-anchor="middle" style="white-space: pre;" direction="ltr" dominant-baseline="alphabetic"></text><text x="96.9091796875" y="142.62" font-family="Segoe UI Emoji" font-size="20px" fill="#1e1e1e" text-anchor="middle" style="white-space: pre;" direction="ltr" dominant-baseline="alphabetic">(ADR-001)</text></g><g stroke-linecap="round"><g transform="translate(220.5 188.61308188379735) rotate(0 68.67305506714393 27.635786483873858)"><path d="M0 0 C41.51 18.94, 86.99 36.4, 137.35 55.27 M0 0 C40.4 17.24, 81.51 34.57, 137.35 55.27" stroke="#1e1e1e" stroke-width="2" fill="none"></path></g><g transform="translate(220.5 188.61308188379735) rotate(0 68.67305506714393 27.635786483873858)"><path d="M112.35 54.88 C118.98 56.38, 129.16 56.59, 137.35 55.27 M112.35 54.88 C119.3 54.78, 126.5 55.55, 137.35 55.27" stroke="#1e1e1e" stroke-width="2" fill="none"></path></g><g transform="translate(220.5 188.61308188379735) rotate(0 68.67305506714393 27.635786483873858)"><path d="M118.45 38.91 C123.04 45.42, 131.3 50.65, 137.35 55.27 M118.45 38.91 C123.43 43.58, 128.78 49.17, 137.35 55.27" stroke="#1e1e1e" stroke-width="2" fill="none"></path></g></g><mask></mask><g stroke-linecap="round"><g transform="translate(220.5 278.732013289871) rotate(0 69.38478520036614 8.085719454133397)"><path d="M0 0 C40.24 5.07, 78.4 6.54, 138.77 16.17 M0 0 C30.94 4.53, 64.83 8.2, 138.77 16.17" stroke="#1e1e1e" stroke-width="2" fill="none"></path></g><g transform="translate(220.5 278.732013289871) rotate(0 69.38478520036614 8.085719454133397)"><path d="M114.49 22.14 C122.5 21.71, 128.29 16.93, 138.77 16.17 M114.49 22.14 C119.19 21.11, 126.69 19.68, 138.77 16.17" stroke="#1e1e1e" stroke-width="2" fill="none"></path></g><g transform="translate(220.5 278.732013289871) rotate(0 69.38478520036614 8.085719454133397)"><path d="M116.34 5.14 C123.72 9.53, 128.99 9.55, 138.77 16.17 M116.34 5.14 C120.5 8.02, 127.59 10.51, 138.77 16.17" stroke="#1e1e1e" stroke-width="2" fill="none"></path></g></g><mask></mask><g stroke-linecap="round"><g transform="translate(220.5 367.4941504777237) rotate(0 69.5 -16.822073264600476)"><path d="M0 0 C50.83 -15, 100.38 -26.84, 139 -33.64 M0 0 C37.49 -8.92, 72 -17.42, 139 -33.64" stroke="#1e1e1e" stroke-width="2" fill="none"></path></g><g transform="translate(220.5 367.4941504777237) rotate(0 69.5 -16.822073264600476)"><path d="M118.19 -19.79 C125.78 -26.69, 131.98 -31.28, 139 -33.64 M118.19 -19.79 C124.72 -23.26, 128.45 -26.6, 139 -33.64" stroke="#1e1e1e" stroke-width="2" fill="none"></path></g><g transform="translate(220.5 367.4941504777237) rotate(0 69.5 -16.822073264600476)"><path d="M114.15 -36.41 C123.32 -37.25, 131 -35.73, 139 -33.64 M114.15 -36.41 C121.58 -35.56, 126.36 -34.58, 139 -33.64" stroke="#1e1e1e" stroke-width="2" fill="none"></path></g></g><mask></mask><g stroke-linecap="round"><g transform="translate(219.9499422469092 457.1522226852618) rotate(0 70.20429692034259 -44.02510332760559)"><path d="M0 0 C50.71 -32.69, 103.44 -66.07, 140.41 -88.05 M0 0 C44.11 -28.47, 90.96 -57.97, 140.41 -88.05" stroke="#1e1e1e" stroke-width="2" fill="none"></path></g><g transform="translate(219.9499422469092 457.1522226852618) rotate(0 70.20429692034259 -44.02510332760559)"><path d="M124.87 -68.47 C129.24 -76.78, 135.61 -84.75, 140.41 -88.05 M124.87 -68.47 C129.02 -74.41, 135.23 -81.63, 140.41 -88.05" stroke="#1e1e1e" stroke-width="2" fill="none"></path></g><g transform="translate(219.9499422469092 457.1522226852618) rotate(0 70.20429692034259 -44.02510332760559)"><path d="M115.92 -83.04 C123.62 -85.87, 133.31 -88.42, 140.41 -88.05 M115.92 -83.04 C123.13 -84.26, 132.25 -86.74, 140.41 -88.05" stroke="#1e1e1e" stroke-width="2" fill="none"></path></g></g><mask></mask><g stroke-linecap="round"><g transform="translate(330.853710841082 533.3486999845865) rotate(0 62.05865904850524 -57.00720962183618)"><path d="M0 0 C42.94 -36.9, 80.57 -77.29, 124.12 -114.01 M0 0 C45.94 -40.17, 91.07 -82.14, 124.12 -114.01" stroke="#1e1e1e" stroke-width="2" fill="none"></path></g><g transform="translate(330.853710841082 533.3486999845865) rotate(0 62.05865904850524 -57.00720962183618)"><path d="M112.98 -91.63 C118.37 -97.88, 118.62 -107.94, 124.12 -114.01 M112.98 -91.63 C117.03 -99.3, 120.88 -107.78, 124.12 -114.01" stroke="#1e1e1e" stroke-width="2" fill="none"></path></g><g transform="translate(330.853710841082 533.3486999845865) rotate(0 62.05865904850524 -57.00720962183618)"><path d="M101.2 -104.03 C110.47 -106.21, 114.61 -112.17, 124.12 -114.01 M101.2 -104.03 C109.48 -107.06, 117.63 -111.01, 124.12 -114.01" stroke="#1e1e1e" stroke-width="2" fill="none"></path></g></g><mask></mask><g stroke-linecap="round"><g transform="translate(520.9189961466844 529.9168843111397) rotate(0 -18.106714324266818 -53.77562032242781)"><path d="M0 0 C-15.87 -42.22, -26.18 -80.41, -36.21 -107.55 M0 0 C-10.05 -29.32, -19.09 -59.24, -36.21 -107.55" stroke="#1e1e1e" stroke-width="2" fill="none"></path></g><g transform="translate(520.9189961466844 529.9168843111397) rotate(0 -18.106714324266818 -53.77562032242781)"><path d="M-20.46 -88.14 C-28.08 -96.7, -30.6 -101.37, -36.21 -107.55 M-20.46 -88.14 C-25.56 -93.16, -29 -98.94, -36.21 -107.55" stroke="#1e1e1e" stroke-width="2" fill="none"></path></g><g transform="translate(520.9189961466844 529.9168843111397) rotate(0 -18.106714324266818 -53.77562032242781)"><path d="M-36.62 -82.55 C-38.12 -93.12, -34.5 -99.91, -36.21 -107.55 M-36.62 -82.55 C-37.26 -88.99, -36.26 -96.29, -36.21 -107.55" stroke="#1e1e1e" stroke-width="2" fill="none"></path></g></g><mask></mask><g stroke-linecap="round" transform="translate(811.3231118925698 50.457142592095664) rotate(0 120 70)"><path d="M-0.85 -1.67 L239.81 0.33 L241.89 140.98 L-1.6 140.99" stroke="none" stroke-width="0" fill="#ffd43b"></path><path d="M0 0 C51.27 -0.38, 104.29 2.81, 240 0 M0 0 C77.1 -1.24, 152.83 -0.72, 240 0 M240 0 C240.94 37.97, 242.52 80.04, 240 140 M240 0 C238.86 44, 238.61 87.06, 240 140 M240 140 C184.8 138.67, 130.61 137.54, 0 140 M240 140 C186.15 138.27, 133.52 138.28, 0 140 M0 140 C-2.27 100.55, -2.37 65.11, 0 0 M0 140 C0.12 106.32, -0.87 72.58, 0 0" stroke="#e67700" stroke-width="3" fill="none"></path></g><g transform="translate(869.1507322368811 68.43902529528293) rotate(0 67.3203125 50)"><text x="67.3203125" y="14.096" font-family="Segoe UI Emoji" font-size="16px" fill="#1e1e1e" text-anchor="middle" style="white-space: pre;" direction="ltr" dominant-baseline="alphabetic">AI/LLM Service</text><text x="67.3203125" y="34.096000000000004" font-family="Segoe UI Emoji" font-size="16px" fill="#1e1e1e" text-anchor="middle" style="white-space: pre;" direction="ltr" dominant-baseline="alphabetic"></text><text x="67.3203125" y="54.096000000000004" font-family="Segoe UI Emoji" font-size="16px" fill="#1e1e1e" text-anchor="middle" style="white-space: pre;" direction="ltr" dominant-baseline="alphabetic">LiteLLM Gateway</text><text x="67.3203125" y="74.096" font-family="Segoe UI Emoji" font-size="16px" fill="#1e1e1e" text-anchor="middle" style="white-space: pre;" direction="ltr" dominant-baseline="alphabetic">Model Router</text><text x="67.3203125" y="94.096" font-family="Segoe UI Emoji" font-size="16px" fill="#1e1e1e" text-anchor="middle" style="white-space: pre;" direction="ltr" dominant-baseline="alphabetic">Prompt Management</text></g><g stroke-linecap="round" transform="translate(811.2004638800564 220.23042959926772) rotate(0 120 60)"><path d="M1.89 0.98 L238.4 0.99 L238.7 119.45 L-1.49 120.82" stroke="none" stroke-width="0" fill="#ffd43b"></path><path d="M0 0 C49.89 -3.14, 99.88 -1.21, 240 0 M0 0 C62.47 -0.13, 125.06 -0.33, 240 0 M240 0 C241.41 24.51, 241.89 51, 240 120 M240 0 C238.68 38.29, 238.83 76.95, 240 120 M240 120 C169.9 119.63, 101.31 117.78, 0 120 M240 120 C181.42 119.32, 122.57 118.25, 0 120 M0 120 C-0.2 92.85, 0.76 65.57, 0 0 M0 120 C0.11 83.52, 0.45 48.87, 0 0" stroke="#e67700" stroke-width="3" fill="none"></path></g><g transform="translate(889.1683745216579 239.72868772989443) rotate(0 39.765625 40)"><text x="39.765625" y="14.096" font-family="Segoe UI Emoji" font-size="16px" fill="#1e1e1e" text-anchor="middle" style="white-space: pre;" direction="ltr" dominant-baseline="alphabetic">Vector Store</text><text x="39.765625" y="34.096000000000004" font-family="Segoe UI Emoji" font-size="16px" fill="#1e1e1e" text-anchor="middle" style="white-space: pre;" direction="ltr" dominant-baseline="alphabetic">(Qdrant)</text><text x="39.765625" y="54.096000000000004" font-family="Segoe UI Emoji" font-size="16px" fill="#1e1e1e" text-anchor="middle" style="white-space: pre;" direction="ltr" dominant-baseline="alphabetic"></text><text x="39.765625" y="74.096" font-family="Segoe UI Emoji" font-size="16px" fill="#1e1e1e" text-anchor="middle" style="white-space: pre;" direction="ltr" dominant-baseline="alphabetic">RAG Data</text></g><g stroke-linecap="round"><g transform="translate(670.9510973087251 242.99737351882825) rotate(0 63.549019125121504 -59.09775899930163)"><path d="M0 0 C27.77 -29.14, 58.12 -55.01, 127.1 -118.2 M0 0 C42.82 -39.65, 87.45 -80.88, 127.1 -118.2" stroke="#1e1e1e" stroke-width="2" fill="none"></path></g><g transform="translate(670.9510973087251 242.99737351882825) rotate(0 63.549019125121504 -59.09775899930163)"><path d="M115.79 -95.9 C117.49 -102.58, 121.34 -106.49, 127.1 -118.2 M115.79 -95.9 C118.85 -102.57, 123.91 -111.03, 127.1 -118.2" stroke="#1e1e1e" stroke-width="2" fill="none"></path></g><g transform="translate(670.9510973087251 242.99737351882825) rotate(0 63.549019125121504 -59.09775899930163)"><path d="M104.1 -108.38 C108.54 -112.25, 115.06 -113.31, 127.1 -118.2 M104.1 -108.38 C111.13 -110.81, 120.19 -115, 127.1 -118.2" stroke="#1e1e1e" stroke-width="2" fill="none"></path></g></g><mask></mask><g stroke-linecap="round"><g transform="translate(673.6159041260634 291.76677598841513) rotate(0 63.260982126036936 -6.204874451250475)"><path d="M0 0 C44.12 -3.65, 88.07 -7.99, 126.52 -12.41 M0 0 C40.64 -5.04, 79.86 -8.74, 126.52 -12.41" stroke="#1e1e1e" stroke-width="2" fill="none"></path></g><g transform="translate(673.6159041260634 291.76677598841513) rotate(0 63.260982126036936 -6.204874451250475)"><path d="M103.82 -1.94 C112.16 -5.71, 120.34 -9.38, 126.52 -12.41 M103.82 -1.94 C111.47 -5.36, 117.71 -8.45, 126.52 -12.41" stroke="#1e1e1e" stroke-width="2" fill="none"></path></g><g transform="translate(673.6159041260634 291.76677598841513) rotate(0 63.260982126036936 -6.204874451250475)"><path d="M102.4 -18.98 C111.16 -16.87, 119.83 -14.67, 126.52 -12.41 M102.4 -18.98 C110.35 -17, 117.04 -14.68, 126.52 -12.41" stroke="#1e1e1e" stroke-width="2" fill="none"></path></g></g><mask></mask><g stroke-linecap="round" transform="translate(1140 102.99415047772365) rotate(0 90 25)"><path d="M1.72 0.4 L179 0.68 L181.63 49.86 L-1.88 49.19" stroke="none" stroke-width="0" fill="#ffe3e3"></path><path d="M0 0 C51.36 -1.35, 103.95 1.05, 180 0 M0 0 C56.03 -0.45, 112.09 -1.17, 180 0 M180 0 C179.85 11.23, 181 21.36, 180 50 M180 0 C180.02 10.59, 181.11 21.76, 180 50 M180 50 C129.49 47.03, 80.44 49.66, 0 50 M180 50 C137.27 49.76, 93.02 49.67, 0 50 M0 50 C0.75 39.02, 1.4 22.68, 0 0 M0 50 C-0.42 32.93, 0.31 14.95, 0 0" stroke="#c92a2a" stroke-width="2" fill="none"></path></g><g transform="translate(1180.727514114779 116.16558010934077) rotate(0 48.8125 10)"><text x="48.8125" y="14.096" font-family="Segoe UI Emoji" font-size="16px" fill="#1e1e1e" text-anchor="middle" style="white-space: pre;" direction="ltr" dominant-baseline="alphabetic">OpenAI GPT-4</text></g><g stroke-linecap="round" transform="translate(1140 172.99415047772365) rotate(0 90 25)"><path d="M1.63 -0.14 L178.12 -0.81 L181.76 50.86 L-1.4 51" stroke="none" stroke-width="0" fill="#ffe3e3"></path><path d="M0 0 C38.9 -1.88, 78.03 -1.16, 180 0 M0 0 C57.03 0.72, 114.91 0.9, 180 0 M180 0 C178.74 15.84, 179.02 27.96, 180 50 M180 0 C180.09 12.66, 179.48 23.53, 180 50 M180 50 C137.18 51.74, 96.5 52.21, 0 50 M180 50 C126.1 48.95, 72.97 49.95, 0 50 M0 50 C0.75 28.99, -0.79 9.07, 0 0 M0 50 C0.87 33.15, -0.49 16.25, 0 0" stroke="#c92a2a" stroke-width="2" fill="none"></path></g><g transform="translate(1169.9456388329118 190.35791217343817) rotate(0 57.09765625 10)"><text x="57.09765625" y="14.096" font-family="Segoe UI Emoji" font-size="16px" fill="#1e1e1e" text-anchor="middle" style="white-space: pre;" direction="ltr" dominant-baseline="alphabetic">Anthropic Claude</text></g><g stroke-linecap="round" transform="translate(1140 242.99415047772365) rotate(0 90 28.92149342270895)"><path d="M1.76 0.86 L178.6 1 L181.62 58.42 L-1.32 56.18" stroke="none" stroke-width="0" fill="#ffe3e3"></path><path d="M0 0 C43.15 -0.54, 84.44 -0.92, 180 0 M0 0 C50.24 0.6, 99.93 -0.72, 180 0 M180 0 C178.5 23.17, 178.53 42.82, 180 57.84 M180 0 C178.8 19.48, 180.12 40.01, 180 57.84 M180 57.84 C120.5 57.92, 60.89 57.96, 0 57.84 M180 57.84 C141.99 58.63, 101.3 58.63, 0 57.84 M0 57.84 C0.98 44.2, -0.03 32.36, 0 0 M0 57.84 C1.1 39.26, -0.65 20.41, 0 0" stroke="#c92a2a" stroke-width="2" fill="none"></path></g><g transform="translate(1184.5630519606555 253.60483827231675) rotate(0 45.765625 20)"><text x="45.765625" y="14.096" font-family="Segoe UI Emoji" font-size="16px" fill="#1e1e1e" text-anchor="middle" style="white-space: pre;" direction="ltr" dominant-baseline="alphabetic">Self-hosted</text><text x="45.765625" y="34.096000000000004" font-family="Segoe UI Emoji" font-size="16px" fill="#1e1e1e" text-anchor="middle" style="white-space: pre;" direction="ltr" dominant-baseline="alphabetic">Llama/Mistral</text></g><g stroke-linecap="round"><g transform="translate(1059.6986009385116 127.21413420733208) rotate(0 39.90069953074419 0.39000813519578514)"><path d="M0 0 C19.45 -0.35, 39.65 0.68, 79.8 0.78 M0 0 C29.06 0.26, 56.27 0.6, 79.8 0.78" stroke="#1e1e1e" stroke-width="2" fill="none"></path></g><g transform="translate(1059.6986009385116 127.21413420733208) rotate(0 39.90069953074419 0.39000813519578514)"><path d="M56.23 9.12 C61.74 6.1, 67.95 4.87, 79.8 0.78 M56.23 9.12 C65.41 5.71, 72.67 2.81, 79.8 0.78" stroke="#1e1e1e" stroke-width="2" fill="none"></path></g><g transform="translate(1059.6986009385116 127.21413420733208) rotate(0 39.90069953074419 0.39000813519578514)"><path d="M56.39 -7.98 C61.76 -6.75, 67.94 -3.72, 79.8 0.78 M56.39 -7.98 C65.37 -5.32, 72.58 -2.15, 79.8 0.78" stroke="#1e1e1e" stroke-width="2" fill="none"></path></g></g><mask></mask><g stroke-linecap="round"><g transform="translate(1050.5 197.99415047772365) rotate(0 44.5 0)"><path d="M0 0 C20.4 0.23, 42 -1.13, 89 0 M0 0 C19.5 -0.01, 40.45 0.01, 89 0" stroke="#1e1e1e" stroke-width="2" fill="none"></path></g><g transform="translate(1050.5 197.99415047772365) rotate(0 44.5 0)"><path d="M65.51 8.55 C70.87 6.45, 77.42 3.13, 89 0 M65.51 8.55 C70.33 6.22, 76.67 4.33, 89 0" stroke="#1e1e1e" stroke-width="2" fill="none"></path></g><g transform="translate(1050.5 197.99415047772365) rotate(0 44.5 0)"><path d="M65.51 -8.55 C70.84 -6.72, 77.38 -6.11, 89 0 M65.51 -8.55 C70.46 -7.06, 76.79 -5.14, 89 0" stroke="#1e1e1e" stroke-width="2" fill="none"></path></g></g><mask></mask><g stroke-linecap="round"><g transform="translate(1050.6324808899562 200.20034280788477) rotate(0 44.43375955502188 33.95451123473637)"><path d="M0 0 C22.81 15.1, 41.91 34.83, 88.87 67.91 M0 0 C21.57 16.06, 41.63 33.23, 88.87 67.91" stroke="#1e1e1e" stroke-width="2" fill="none"></path></g><g transform="translate(1050.6324808899562 200.20034280788477) rotate(0 44.43375955502188 33.95451123473637)"><path d="M64.94 60.67 C71.89 60.85, 75.1 65.74, 88.87 67.91 M64.94 60.67 C71.33 61.97, 75.98 64.75, 88.87 67.91" stroke="#1e1e1e" stroke-width="2" fill="none"></path></g><g transform="translate(1050.6324808899562 200.20034280788477) rotate(0 44.43375955502188 33.95451123473637)"><path d="M75.19 46.98 C79.63 50.49, 80.34 58.74, 88.87 67.91 M75.19 46.98 C79.1 51.47, 81.32 57.5, 88.87 67.91" stroke="#1e1e1e" stroke-width="2" fill="none"></path></g></g><mask></mask><g stroke-linecap="round" transform="translate(260.7294419928717 541.2026997904904) rotate(0 65 30)"><path d="M-0.42 -0.08 L128.42 -1.4 L129.46 61.02 L0.21 58.92" stroke="none" stroke-width="0" fill="#d3f9d8"></path><path d="M0 0 C35.74 2.56, 73.3 0.34, 130 0 M0 0 C31.32 1.23, 62.32 -0.06, 130 0 M130 0 C128.31 14.48, 129.27 28.83, 130 60 M130 0 C129.3 16.99, 129.64 35.81, 130 60 M130 60 C79.72 57.67, 26.91 57.47, 0 60 M130 60 C86.54 60.08, 40.86 60.22, 0 60 M0 60 C-0.77 38.87, 0.9 12.84, 0 0 M0 60 C-1.14 38.16, -1.14 18.85, 0 0" stroke="#2f9e44" stroke-width="2" fill="none"></path></g><g transform="translate(301.1447611667076 552.7474201399394) rotate(0 23.55859375 20)"><text x="23.55859375" y="14.096" font-family="Segoe UI Emoji" font-size="16px" fill="#1e1e1e" text-anchor="middle" style="white-space: pre;" direction="ltr" dominant-baseline="alphabetic">IAM</text><text x="23.55859375" y="34.096000000000004" font-family="Segoe UI Emoji" font-size="16px" fill="#1e1e1e" text-anchor="middle" style="white-space: pre;" direction="ltr" dominant-baseline="alphabetic">System</text></g><g stroke-linecap="round" transform="translate(430.7294419928717 541.2026997904904) rotate(0 65 30)"><path d="M-0.54 1.02 L130.21 -1.08 L129.49 61.43 L-0.54 58.03" stroke="none" stroke-width="0" fill="#d3f9d8"></path><path d="M0 0 C47.61 1.94, 96.4 -0.1, 130 0 M0 0 C44.94 0.18, 91.89 0.42, 130 0 M130 0 C129.87 18.91, 129.69 38.77, 130 60 M130 0 C130.89 13.48, 129.15 26.46, 130 60 M130 60 C100.24 58.99, 68.66 60.75, 0 60 M130 60 C89.21 60.37, 45.86 60.04, 0 60 M0 60 C0.75 38.35, 0.32 12.15, 0 0 M0 60 C0.18 46.95, -0.4 33.27, 0 0" stroke="#2f9e44" stroke-width="2" fill="none"></path></g><g transform="translate(466.1447611667076 552.7474201399394) rotate(0 27.99609375 20)"><text x="27.99609375" y="14.096" font-family="Segoe UI Emoji" font-size="16px" fill="#1e1e1e" text-anchor="middle" style="white-space: pre;" direction="ltr" dominant-baseline="alphabetic">Payment</text><text x="27.99609375" y="34.096000000000004" font-family="Segoe UI Emoji" font-size="16px" fill="#1e1e1e" text-anchor="middle" style="white-space: pre;" direction="ltr" dominant-baseline="alphabetic">System</text></g><g stroke-linecap="round" transform="translate(810 453.10564867091773) rotate(0 120.9912109375 53.8232421875)"><path d="M1.77 -0.52 L243.5 0.76 L241.38 105.67 L-0.29 107.14" stroke="none" stroke-width="0" fill="#ffd43b"></path><path d="M0 0 C49.71 2.42, 101.19 1.88, 241.98 0 M0 0 C69.42 -0.04, 139.22 -0.63, 241.98 0 M241.98 0 C243.14 29.69, 243.15 61.28, 241.98 107.65 M241.98 0 C241.16 29.26, 242.04 58.91, 241.98 107.65 M241.98 107.65 C181.36 107.72, 120.28 110.74, 0 107.65 M241.98 107.65 C159.65 108.9, 75.42 107.97, 0 107.65 M0 107.65 C-1.02 80.83, -2.34 56.64, 0 0 M0 107.65 C-0.37 70.58, -0.38 31.1, 0 0" stroke="#f08c00" stroke-width="2" fill="none"></path></g><g transform="translate(877.1823187532945 463.8847480937675) rotate(0 50.34326171875 43.75)"><text x="50.34326171875" y="12.334" font-family="Segoe UI Emoji" font-size="14px" fill="#1e1e1e" text-anchor="middle" style="white-space: pre;" direction="ltr" dominant-baseline="alphabetic">Data Stores</text><text x="50.34326171875" y="29.834" font-family="Segoe UI Emoji" font-size="14px" fill="#1e1e1e" text-anchor="middle" style="white-space: pre;" direction="ltr" dominant-baseline="alphabetic"></text><text x="50.34326171875" y="47.334" font-family="Segoe UI Emoji" font-size="14px" fill="#1e1e1e" text-anchor="middle" style="white-space: pre;" direction="ltr" dominant-baseline="alphabetic">Vehicle Locations</text><text x="50.34326171875" y="64.834" font-family="Segoe UI Emoji" font-size="14px" fill="#1e1e1e" text-anchor="middle" style="white-space: pre;" direction="ltr" dominant-baseline="alphabetic">Active Bookings</text><text x="50.34326171875" y="82.334" font-family="Segoe UI Emoji" font-size="14px" fill="#1e1e1e" text-anchor="middle" style="white-space: pre;" direction="ltr" dominant-baseline="alphabetic">Time Series Data</text></g><g stroke-linecap="round" transform="translate(810 582.9941504777237) rotate(0 120.53167583238917 55.873231762965816)"><path d="M-0.29 -0.51 L239.49 -1.55 L242.37 111.88 L-0.12 110.44" stroke="none" stroke-width="0" fill="#ffd43b"></path><path d="M0 0 C79.55 -1.83, 159 -1.79, 241.06 0 M0 0 C52.95 0.08, 103.67 0.08, 241.06 0 M241.06 0 C241.58 26.25, 240.57 54.29, 241.06 111.75 M241.06 0 C241.32 35.69, 239.57 71.12, 241.06 111.75 M241.06 111.75 C148.42 111.69, 54.59 109.25, 0 111.75 M241.06 111.75 C188.6 113.46, 135.82 112.91, 0 111.75 M0 111.75 C-1.65 80.72, 0.86 50.2, 0 0 M0 111.75 C-0.23 89.63, -1.29 65.77, 0 0" stroke="#e67700" stroke-width="2" fill="none"></path></g><g transform="translate(873.989753821504 597.4564068824177) rotate(0 58.12255859375 43.74999999999997)"><text x="58.12255859375" y="12.334" font-family="Segoe UI Emoji" font-size="14px" fill="#1e1e1e" text-anchor="middle" style="white-space: pre;" direction="ltr" dominant-baseline="alphabetic">ML Services</text><text x="58.12255859375" y="29.834" font-family="Segoe UI Emoji" font-size="14px" fill="#1e1e1e" text-anchor="middle" style="white-space: pre;" direction="ltr" dominant-baseline="alphabetic"></text><text x="58.12255859375" y="47.334" font-family="Segoe UI Emoji" font-size="14px" fill="#1e1e1e" text-anchor="middle" style="white-space: pre;" direction="ltr" dominant-baseline="alphabetic">Dynamic Pricing</text><text x="58.12255859375" y="64.834" font-family="Segoe UI Emoji" font-size="14px" fill="#1e1e1e" text-anchor="middle" style="white-space: pre;" direction="ltr" dominant-baseline="alphabetic">Demand Forecasting</text><text x="58.12255859375" y="82.334" font-family="Segoe UI Emoji" font-size="14px" fill="#1e1e1e" text-anchor="middle" style="white-space: pre;" direction="ltr" dominant-baseline="alphabetic">Route Optimization</text></g><g stroke-linecap="round"><g transform="translate(671.1815269079927 421.1092530061102) rotate(0 62.55111029603455 34.79301118621237)"><path d="M0 0 C30.15 18.1, 64.06 37.92, 125.1 69.59 M0 0 C42.48 23.4, 86.06 48.38, 125.1 69.59" stroke="#1e1e1e" stroke-width="2" fill="none"></path></g><g transform="translate(671.1815269079927 421.1092530061102) rotate(0 62.55111029603455 34.79301118621237)"><path d="M100.4 65.73 C105.02 66.64, 113.32 69.69, 125.1 69.59 M100.4 65.73 C108.35 66.68, 116.87 68.71, 125.1 69.59" stroke="#1e1e1e" stroke-width="2" fill="none"></path></g><g transform="translate(671.1815269079927 421.1092530061102) rotate(0 62.55111029603455 34.79301118621237)"><path d="M108.66 50.76 C111.16 55.44, 117.35 62.32, 125.1 69.59 M108.66 50.76 C113.6 56.98, 119.24 64.23, 125.1 69.59" stroke="#1e1e1e" stroke-width="2" fill="none"></path></g></g><mask></mask><g stroke-linecap="round"><g transform="translate(586.0921511456423 435.56546412743353) rotate(0 105.47048146287534 98.33397318429803)"><path d="M0 0 C68.21 64.49, 136.94 128.89, 210.94 196.67 M0 0 C77.19 71.12, 155.11 142.87, 210.94 196.67" stroke="#1e1e1e" stroke-width="2" fill="none"></path></g><g transform="translate(586.0921511456423 435.56546412743353) rotate(0 105.47048146287534 98.33397318429803)"><path d="M188.01 186.7 C195.82 190.26, 203.98 194.59, 210.94 196.67 M188.01 186.7 C195.71 189.72, 205.01 193.02, 210.94 196.67" stroke="#1e1e1e" stroke-width="2" fill="none"></path></g><g transform="translate(586.0921511456423 435.56546412743353) rotate(0 105.47048146287534 98.33397318429803)"><path d="M199.79 174.29 C203.76 181.81, 208.12 190.15, 210.94 196.67 M199.79 174.29 C203.21 181.89, 208.21 189.74, 210.94 196.67" stroke="#1e1e1e" stroke-width="2" fill="none"></path></g></g><mask></mask><g stroke-linecap="round" transform="translate(1139.2747081130412 385.8461456942392) rotate(0 89.81867702826037 37.12998804128904)"><path d="M-0.12 -1.31 L181.22 0.12 L181.39 73.46 L1.76 72.68" stroke="none" stroke-width="0" fill="#ffe3e3"></path><path d="M0 0 C46.55 2.06, 93.42 -1.43, 179.64 0 M0 0 C62.05 0.9, 125.58 0.4, 179.64 0 M179.64 0 C180.47 30.31, 179.65 55.49, 179.64 74.26 M179.64 0 C179.59 19.76, 181.1 38.8, 179.64 74.26 M179.64 74.26 C139.32 72.66, 95.43 71.5, 0 74.26 M179.64 74.26 C138.47 74.64, 96.83 75.89, 0 74.26 M0 74.26 C0.21 55.49, 1.49 33.08, 0 0 M0 74.26 C-0.68 58.56, 0.76 44.47, 0 0" stroke="#c92a2a" stroke-width="2" fill="none"></path></g><g transform="translate(1193.2413279975947 397.98044839042984) rotate(0 37.91552734375 26.25)"><text x="37.91552734375" y="12.334" font-family="Segoe UI Emoji" font-size="14px" fill="#1e1e1e" text-anchor="middle" style="white-space: pre;" direction="ltr" dominant-baseline="alphabetic">Partner APIs</text><text x="37.91552734375" y="29.834" font-family="Segoe UI Emoji" font-size="14px" fill="#1e1e1e" text-anchor="middle" style="white-space: pre;" direction="ltr" dominant-baseline="alphabetic">AirBnB</text><text x="37.91552734375" y="47.334" font-family="Segoe UI Emoji" font-size="14px" fill="#1e1e1e" text-anchor="middle" style="white-space: pre;" direction="ltr" dominant-baseline="alphabetic">Booking.com</text></g><g stroke-linecap="round"><g transform="translate(675.1174131277437 351.3951153444348) rotate(0 232.19129343612815 30.916590669498206)"><path d="M0 0 C183.73 25.48, 366.18 49.77, 464.38 61.83 M0 0 C158.7 21.36, 316.39 42.51, 464.38 61.83" stroke="#1e1e1e" stroke-width="2" fill="none"></path></g><g transform="translate(675.1174131277437 351.3951153444348) rotate(0 232.19129343612815 30.916590669498206)"><path d="M439.98 67.25 C450.57 64.01, 458.65 61.68, 464.38 61.83 M439.98 67.25 C449.16 65.62, 456.12 63.92, 464.38 61.83" stroke="#1e1e1e" stroke-width="2" fill="none"></path></g><g transform="translate(675.1174131277437 351.3951153444348) rotate(0 232.19129343612815 30.916590669498206)"><path d="M442.21 50.29 C452 53.72, 459.21 58.08, 464.38 61.83 M442.21 50.29 C450.63 54.45, 456.83 58.52, 464.38 61.83" stroke="#1e1e1e" stroke-width="2" fill="none"></path></g></g><mask></mask><g transform="translate(66.78602979374438 509.16559866264004) rotate(0 55.7734375 10)"><text x="0" y="14.096" font-family="Segoe UI Emoji" font-size="16px" fill="#2f9e44" text-anchor="start" style="white-space: pre;" direction="ltr" dominant-baseline="alphabetic">Apps (ADR-002)</text></g><g transform="translate(811.3231118925698 10) rotate(0 103.53125 10)"><text x="0" y="14.096" font-family="Segoe UI Emoji" font-size="16px" fill="#e67700" text-anchor="start" style="white-space: pre;" direction="ltr" dominant-baseline="alphabetic">AI Layer (ADR-003, ADR-004)</text></g><g transform="translate(1140 62.99415047772365) rotate(0 56.19921875 10)"><text x="0" y="14.096" font-family="Segoe UI Emoji" font-size="16px" fill="#c92a2a" text-anchor="start" style="white-space: pre;" direction="ltr" dominant-baseline="alphabetic">External Services</text></g></svg>